<?xml version="1.0" encoding="utf-8"?>
<!-- Generator: Adobe Illustrator 25.0.0, SVG Export Plug-In . SVG Version: 6.00 Build 0)  -->
<svg version="1.1" id="Layer_1" xmlns="http://www.w3.org/2000/svg" xmlns:xlink="http://www.w3.org/1999/xlink" x="0px" y="0px"
	 viewBox="0 0 129 77.4" style="enable-background:new 0 0 129 77.4;" xml:space="preserve">
<style type="text/css">
	.st0{fill:#734E2C;}
	.st1{fill:#00753F;}
	.st2{fill:#FFFFFF;}
</style>
<polygon class="st0" points="63.5,6.2 63.5,55.3 44.8,55.3 44.8,33.2 29.6,33.2 29.6,55.5 7.6,55.5 7.6,6.3 29.6,6.3 29.6,28.3 
	44.8,28.3 44.8,6.2 "/>
<g>
	<path class="st1" d="M67.2,6.4v49c0,0,51.9,4.7,52.3-24.5C120,1.7,67.2,6.4,67.2,6.4z"/>
	<path class="st2" d="M82.1,19.2v23c0,0,17.9,2.2,18.1-11.5C100.3,17,82.1,19.2,82.1,19.2z"/>
</g>
<g>
	<g>
		<path class="st0" d="M14.1,58.4l0,4.4l6.7,0.1l0-4.4l1.8,0l-0.1,10.4l-1.8,0l0-4.9L14,63.9l0,4.9l-1.8,0l0.1-10.4L14.1,58.4z"/>
		<path class="st0" d="M34.6,65.2c0,2.8-2.6,4-5,3.9c-2.7,0-4.8-1.5-4.8-3.9c0-2.5,2.2-3.9,5-3.9C32.7,61.3,34.6,62.9,34.6,65.2z
			 M26.7,65.2c0,1.6,1.2,2.9,3,2.9c1.7,0,3-1.2,3.1-2.9c0-1.3-0.8-2.9-3-2.9C27.6,62.3,26.7,63.8,26.7,65.2z"/>
		<path class="st0" d="M36.9,63.6c0-0.8,0-1.4-0.1-2l1.6,0l0.1,1.2h0.1c0.6-0.7,1.5-1.4,3.2-1.3c1.3,0,2.4,0.6,2.8,1.5l0,0
			c0.3-0.4,0.7-0.7,1.1-1c0.6-0.3,1.3-0.5,2.2-0.5c1.3,0,3.3,0.7,3.3,3.3l0,4.4l-1.8,0l0-4.2c0-1.4-0.7-2.3-2.1-2.3
			c-1,0-1.8,0.5-2.2,1.2c-0.1,0.2-0.2,0.4-0.2,0.7l0,4.6l-1.8,0l0-4.5c0-1.2-0.7-2.1-2.1-2.1c-1.1,0-2,0.7-2.3,1.3
			c-0.1,0.2-0.1,0.4-0.1,0.7l0,4.5l-1.8,0L36.9,63.6z"/>
		<path class="st0" d="M55.1,65.7c0,1.8,1.6,2.6,3.4,2.6c1.3,0,2.1-0.2,2.8-0.4l0.3,1c-0.6,0.2-1.7,0.5-3.3,0.4
			c-3.1,0-4.9-1.6-4.9-3.8c0-2.3,1.8-4,4.7-4c3.2,0,4.1,2.2,4.1,3.5c0,0.3,0,0.5-0.1,0.6L55.1,65.7z M60.4,64.8
			c0-0.9-0.5-2.2-2.5-2.2c-1.8,0-2.6,1.2-2.8,2.2L60.4,64.8z"/>
	</g>
</g>
<g>
	<g>
		<g>
			<path class="st1" d="M66.8,61.3c1.1-0.1,2.5-0.2,3.9-0.2c2.7,0,4.6,0.4,5.8,1c1.3,0.6,2,1.6,2,2.8c0,1.3-0.7,2.3-2.1,3.1
				c-1.4,0.7-3.6,1.1-6.3,1.1c-1.3,0-2.4,0-3.4-0.1L66.8,61.3z M68.7,68.3c0.5,0,1.2,0,1.9,0c4,0,6.1-1.2,6.1-3.3c0-1.9-1.9-3-5.8-3
				c-1,0-1.7,0-2.2,0.1L68.7,68.3z"/>
			<path class="st1" d="M82,66.5c0,1.4,1.6,2,3.5,2c1.3,0,2.2-0.1,2.8-0.3l0.3,0.7c-0.7,0.2-1.8,0.4-3.4,0.4c-3.2,0-5.1-1.2-5.1-2.9
				c0-1.7,1.8-3.1,4.8-3.1c3.4,0,4.2,1.6,4.2,2.7c0,0.2,0,0.4-0.1,0.5L82,66.5z M87.4,65.8c0-0.6-0.5-1.7-2.6-1.7
				c-1.9,0-2.7,0.9-2.9,1.7L87.4,65.8z"/>
			<path class="st1" d="M98.9,69c-0.5,0.1-1.6,0.3-3,0.3c-3.1,0-5.1-1.2-5.1-2.9c0-1.7,2.2-3,5.5-3c1.1,0,2.1,0.2,2.6,0.3l-0.4,0.8
				c-0.5-0.1-1.2-0.3-2.2-0.3c-2.3,0-3.6,1-3.6,2.1c0,1.3,1.5,2.1,3.6,2.1c1,0,1.8-0.1,2.3-0.3L98.9,69z"/>
			<path class="st1" d="M110.4,66.3c0,2.1-2.6,3-5.1,3c-2.8,0-4.9-1.1-4.9-2.9c0-1.9,2.3-3,5.1-3C108.4,63.4,110.4,64.6,110.4,66.3z
				 M102.3,66.3c0,1.2,1.3,2.2,3.1,2.2c1.8,0,3.1-0.9,3.1-2.2c0-1-0.9-2.2-3.1-2.2C103.2,64.1,102.3,65.3,102.3,66.3z"/>
			<path class="st1" d="M112.8,65.3c0-0.7,0-1.2-0.1-1.8l1.6,0l0.1,1.1h0.1c0.5-0.8,1.6-1.2,2.9-1.2c0.2,0,0.3,0,0.5,0l0,1
				c-0.2,0-0.4,0-0.6,0c-1.3,0-2.2,0.5-2.5,1.3c0,0.1-0.1,0.3-0.1,0.5l0,3l-1.9,0L112.8,65.3z"/>
		</g>
	</g>
</g>
</svg>
